<svg width="133" height="130" viewBox="0 0 133 130" fill="none" xmlns="http://www.w3.org/2000/svg">
<path id="Star 1" d="M64.5868 2.28191C65.1623 0.392178 67.8377 0.39217 68.4132 2.28191L79.3938 38.3355C79.7344 39.4539 80.9576 40.043 82.0444 39.612L117.079 25.7179C118.915 24.9896 120.583 27.0813 119.464 28.7095L98.1227 59.7736C97.4607 60.7372 97.7628 62.0607 98.7773 62.6417L131.484 81.3696C133.198 82.3513 132.603 84.9596 130.632 85.1002L93.039 87.7828C91.8729 87.866 91.0264 88.9274 91.2048 90.0828L96.9547 127.33C97.2561 129.283 94.8457 130.443 93.5072 128.991L67.9709 101.272C67.1788 100.412 65.8212 100.412 65.0291 101.272L39.4928 128.991C38.1543 130.443 35.7439 129.283 36.0453 127.33L41.7952 90.0828C41.9736 88.9274 41.1271 87.866 39.961 87.7828L2.36787 85.1002C0.397448 84.9596 -0.197888 82.3513 1.5164 81.3696L34.2227 62.6417C35.2372 62.0607 35.5393 60.7372 34.8773 59.7736L13.5357 28.7095C12.4171 27.0813 14.0852 24.9896 15.9215 25.7179L50.9556 39.612C52.0424 40.043 53.2656 39.4539 53.6062 38.3355L64.5868 2.28191Z" fill="#FFFEFB"/>
</svg>
