<svg width="27" height="41" viewBox="0 0 27 41" fill="none" xmlns="http://www.w3.org/2000/svg">
<path id="Vector" fill-rule="evenodd" clip-rule="evenodd" d="M22.9393 22.2744C19.9314 22.4621 17.5226 24.2723 16.5292 27.1227C15.531 29.9866 15.423 32.9844 15.2705 35.9691C15.2068 37.2165 15.255 38.4696 15.2533 39.7202C15.2525 40.2192 15.2255 40.9955 14.8074 41C14.225 41.0062 14.2132 40.2698 14.1877 39.7329C14.0475 36.7774 13.8153 33.8343 12.9176 30.9884C11.3685 26.0779 6.83661 22.833 1.78697 23.0218C1.72332 23.0241 1.65111 23.0677 1.59819 23.049C1.01854 22.8448 -0.00745911 22.969 4.08909e-05 22.3021C0.00775518 21.6069 0.98683 21.7008 1.57804 21.7083C4.40126 21.7437 6.48733 20.4151 8.51876 18.546C11.4468 15.8522 12.3268 12.3811 12.8544 8.73483C13.2103 6.27399 13.2851 3.77302 13.5178 1.29309C13.5626 0.815376 13.2986 0.0476477 14.0906 0.00217178C14.9681 -0.0480233 14.6906 0.783628 14.8318 1.27914C15.038 2.19445 14.8983 3.11985 14.9139 4.04074C14.987 8.02652 15.0545 12.0127 16.2757 15.8668C17.201 18.7871 19.275 20.2662 22.2395 20.5781C23.0486 20.6632 23.8513 20.8973 24.6787 20.7713C25.1803 20.6521 25.682 20.6536 26.1836 20.7705C26.5132 20.8908 27.0609 20.7632 26.9945 21.3617C26.9407 21.8488 26.5464 21.896 26.123 21.916C25.4253 21.9488 24.7303 22.044 24.0341 22.1129C23.6889 22.3006 23.2839 22.0826 22.9393 22.2744Z" fill="#F1C7D1"/>
</svg>
