<svg width="43" height="65" viewBox="0 0 43 65" fill="none" xmlns="http://www.w3.org/2000/svg">
<path id="Vector" fill-rule="evenodd" clip-rule="evenodd" d="M36.533 35.3131C31.7426 35.6107 27.9064 38.4805 26.3243 42.9995C24.7346 47.5398 24.5626 52.2924 24.3196 57.0242C24.2183 59.0017 24.2951 60.9884 24.2923 62.9711C24.291 63.7621 24.248 64.9928 23.5822 64.9999C22.6546 65.0098 22.6358 63.8423 22.5952 62.9911C22.372 58.3056 22.0021 53.6397 20.5725 49.128C18.1055 41.343 10.8879 36.1987 2.84591 36.4979C2.74455 36.5017 2.62955 36.5707 2.54526 36.5411C1.62212 36.2174 -0.0118793 36.4143 6.51226e-05 35.357C0.0123508 34.2548 1.57162 34.4037 2.51318 34.4156C7.00941 34.4718 10.3317 32.3653 13.5669 29.4023C18.23 25.1316 19.6316 19.6285 20.4718 13.8479C21.0387 9.94656 21.1578 5.98162 21.5284 2.05002C21.5997 1.29267 21.1793 0.075539 22.4406 0.00344307C23.8381 -0.0761345 23.3962 1.24234 23.6211 2.02791C23.9494 3.47901 23.7269 4.9461 23.7518 6.40604C23.8681 12.725 23.9756 19.0446 25.9205 25.1547C27.3941 29.7845 30.6973 32.1293 35.4184 32.6238C36.7071 32.7588 37.9855 33.1298 39.3031 32.9302C40.102 32.7411 40.9009 32.7435 41.6998 32.9288C42.2247 33.1196 43.097 32.9173 42.9912 33.8661C42.9055 34.6384 42.2776 34.7132 41.6032 34.7448C40.4921 34.7969 39.3853 34.9479 38.2766 35.057C37.7268 35.3546 37.0818 35.0091 36.533 35.3131Z" fill="#010100"/>
</svg>
